<svg width="680" height="681" viewBox="0 0 680 681" fill="none" xmlns="http://www.w3.org/2000/svg">
<path d="M44.5365 341.867C45.3564 505.226 178.285 636.169 341.445 636.169C504.606 636.169 620.54 509.827 635.385 359.703H424.655C426.629 353.204 427.695 346.31 427.705 339.167C427.717 330.893 426.312 322.948 423.717 315.561H679.921C679.921 315.561 680.098 331.931 679.921 338.894C675.151 526.822 529.202 680.761 341.445 680.761C153.689 680.761 0 530.636 0 338.894C0 147.151 154.393 0 341.445 0H635.385C635.385 118.91 537.863 163.501 466.605 163.501H341.445C240.496 163.501 162.473 243.362 163.3 341.867C164.12 439.554 243.878 517.971 341.445 517.259C398.906 516.84 464.034 482.042 496.287 429.376L530.508 454.549C491.203 517.206 416.798 561.85 341.445 561.85C231.589 561.85 118.764 477.127 118.764 341.867C118.764 206.606 227.136 118.91 341.445 118.91H466.605C521.101 118.91 587.88 84.0314 587.88 44.5913H341.445C177.469 43.7663 43.7125 177.688 44.5365 341.867Z" fill="#00FBF4"/>
<path d="M410.686 338.458C410.629 377.622 378.835 409.325 339.671 409.268C300.507 409.212 268.804 377.417 268.861 338.253C268.918 299.089 300.712 267.387 339.876 267.443C379.04 267.5 410.743 299.295 410.686 338.458Z" fill="#00FBF4"/>
</svg>
